<svg xmlns="http://www.w3.org/2000/svg" width="51.811" height="34.495" viewBox="0 0 51.811 34.495">
  <g id="Logo" transform="translate(0 0)">
    <path id="Path_7" data-name="Path 7" d="M152.268,10.262V-4.853l-26.156-9.466L100.457-4.853V10.262Z" transform="translate(-100.457 14.319)" fill="#946e2d"/>
    <path id="Path_8" data-name="Path 8" d="M6.819,0c3.766,0,6.819,3.787,6.819,8.459H0C0,3.787,3.053,0,6.819,0Z" transform="translate(2.689 16.435)" fill="#fff"/>
    <path id="Path_9" data-name="Path 9" d="M6.819,0c3.766,0,6.819,3.787,6.819,8.459H0C0,3.787,3.053,0,6.819,0Z" transform="translate(34.513 16.435)" fill="#fff"/>
    <path id="Path_10" data-name="Path 10" d="M6.819,0c3.766,0,6.819,3.787,6.819,8.459H0C0,3.787,3.053,0,6.819,0Z" transform="translate(18.601 16.435)" fill="#fff"/>
    <path id="Path_12" data-name="Path 12" d="M0,0H13.642V9.544H0Z" transform="translate(2.701 24.951)" fill="#946e2d"/>
    <path id="Path_13" data-name="Path 13" d="M0,0H13.605V9.586H0Z" transform="translate(34.53 24.91)" fill="#946e2d"/>
    <path id="Path_14" data-name="Path 14" d="M0,0H13.639V9.544H0Z" transform="translate(18.608 24.951)" fill="#946e2d"/>
  </g>
</svg>
